<?xml version="1.0" encoding="UTF-8"?><svg xmlns="http://www.w3.org/2000/svg" xmlns:xlink="http://www.w3.org/1999/xlink" height="231.8" preserveAspectRatio="xMidYMid meet" version="1.1" viewBox="129.6 96.7 166.0 231.8" width="166.0" zoomAndPan="magnify">
 <g id="surface1">
  <g id="change1_1"><path d="m178.18 201.84h68.84v-50.03c0-20.29-15.44-36.81-34.42-36.81s-34.42 16.52-34.42 36.81zm84.63 15.79h-100.42v-65.82c0-29 22.52-52.595 50.21-52.595s50.21 23.595 50.21 52.595v65.82" fill="#92c9e9"/></g>
  <g id="change2_1"><path d="m178.18 201.84v2.5h68.84c0.66 0 1.3-0.27 1.77-0.73 0.46-0.47 0.73-1.11 0.73-1.77v-50.03c0-10.79-4.1-20.6-10.77-27.72-6.65-7.13-15.92-11.59-26.15-11.59-10.22 0-19.5 4.46-26.15 11.59-6.66 7.12-10.77 16.93-10.77 27.72v50.03c0 0.66 0.27 1.3 0.73 1.77 0.47 0.46 1.11 0.73 1.77 0.73v-2.5h2.5v-50.03c0-9.51 3.62-18.1 9.42-24.31 5.81-6.2 13.75-10 22.5-10 8.76 0 16.69 3.8 22.5 10 5.81 6.21 9.42 14.8 9.42 24.31v47.53h-66.34v2.5h2.5zm84.63 15.79v-2.5h-97.92v-63.32c0-13.85 5.38-26.38 14.03-35.45 8.67-9.06 20.56-14.64 33.68-14.65 13.12 0.01 25.02 5.59 33.68 14.65 8.65 9.07 14.03 21.6 14.03 35.45v65.82h2.5v-2.5 2.5h2.5v-65.82c0-15.15-5.89-28.92-15.42-38.9-9.51-9.98-22.73-16.195-37.29-16.195s-27.77 6.215-37.3 16.195c-9.52 9.98-15.41 23.75-15.41 38.9v65.82c0 0.66 0.27 1.3 0.73 1.77 0.47 0.46 1.11 0.73 1.77 0.73h100.42c0.66 0 1.3-0.27 1.77-0.73 0.46-0.47 0.73-1.11 0.73-1.77h-2.5" fill="#040505"/></g>
  <g id="change1_2"><path d="m293.11 196.25s-50.02-10.19-80.51-32.49c-30.49 22.3-80.51 32.49-80.51 32.49-0.62 116.55 74.21 128.9 80.51 129.73 6.3-0.83 81.13-13.18 80.51-129.73" fill="#92c9e9"/></g>
  <g id="change2_4"><path d="m293.11 196.25l0.5-2.45s-0.04-0.01-0.13-0.03c-1.42-0.29-14.05-2.99-29.94-8.28-15.9-5.29-35.06-13.2-49.47-23.75-0.87-0.64-2.07-0.64-2.95 0-14.86 10.89-34.81 18.97-50.99 24.25-8.09 2.65-15.24 4.6-20.36 5.9-2.56 0.64-4.61 1.12-6.02 1.44-0.71 0.16-1.25 0.28-1.61 0.36-0.19 0.04-0.33 0.06-0.42 0.08s-0.13 0.03-0.13 0.03c-1.16 0.24-1.99 1.25-2 2.43v1.45c0 29.07 4.68 51.78 11.88 69.48 10.78 26.57 27.25 41.82 41.61 50.39 14.37 8.59 26.6 10.57 29.19 10.91 0.21 0.03 0.45 0.03 0.66 0 1.72-0.23 7.73-1.18 15.81-4.34 12.1-4.73 28.89-14.44 42.6-33.99 13.72-19.55 24.28-48.84 24.27-92.45v-1.44c0-1.19-0.84-2.2-2-2.44l-0.5 2.45-2.5 0.01v1.42c0 28.54-4.59 50.58-11.51 67.6-10.39 25.53-25.98 39.85-39.55 47.98-13.57 8.12-25.16 9.97-27.28 10.25l0.33 2.47 0.33-2.47c-1.41-0.19-7.04-1.07-14.65-4.05-11.42-4.47-27.28-13.6-40.33-32.2-13.04-18.61-23.36-46.76-23.36-89.58v-1.41l-2.5-0.02 0.5 2.45c0.06-0.01 12.65-2.58 29.1-7.96s36.76-13.55 52.38-24.97l-1.47-2.01-1.48 2.01c15.63 11.42 35.94 19.59 52.39 24.97s29.04 7.95 29.1 7.96l0.5-2.45-2.5 0.01 2.5-0.01" fill="#040505"/></g>
  <g id="change3_1"><path d="m276.34 206.38s-39.6-8.07-63.74-25.73c-24.14 17.66-63.74 25.73-63.74 25.73-0.49 92.28 58.75 102.05 63.74 102.71 4.99-0.66 64.23-10.43 63.74-102.71" fill="#66c42f"/></g>
  <g id="change2_3"><path d="m276.34 206.38l0.5-2.45-0.1-0.02c-1.11-0.23-11.09-2.37-23.65-6.55-12.55-4.17-27.69-10.43-39.02-18.73-0.87-0.64-2.07-0.64-2.95 0-11.69 8.57-27.44 14.96-40.22 19.13-6.39 2.09-12.04 3.63-16.09 4.65-2.02 0.52-3.65 0.89-4.76 1.15-0.55 0.12-0.98 0.22-1.27 0.28-0.14 0.03-0.25 0.05-0.32 0.07l-0.1 0.02c-1.16 0.23-2 1.25-2 2.43 0 0.39-0.01 0.77-0.01 1.15 0 23.07 3.72 41.12 9.45 55.21 8.58 21.14 21.71 33.31 33.16 40.14 11.46 6.85 21.22 8.43 23.31 8.71 0.21 0.03 0.45 0.03 0.66 0 1.4-0.18 6.19-0.95 12.64-3.47 9.65-3.77 23.04-11.52 33.96-27.1 10.93-15.57 19.32-38.89 19.31-73.49v-1.14c0-1.19-0.84-2.21-2-2.44l-0.5 2.45-2.5 0.01v1.12c0 22.54-3.62 39.92-9.07 53.33-8.18 20.1-20.43 31.34-31.1 37.73-10.66 6.38-19.77 7.83-21.4 8.04l0.33 2.48 0.33-2.48c-1.09-0.14-5.5-0.83-11.48-3.17-8.97-3.51-21.43-10.68-31.69-25.31s-18.4-36.81-18.41-70.62c0-0.37 0.01-0.74 0.01-1.12l-2.5-0.01 0.5 2.44c0.06-0.01 10.04-2.04 23.09-6.31 13.06-4.28 29.18-10.75 41.62-19.84l-1.47-2.02-1.48 2.02c12.45 9.09 28.57 15.56 41.63 19.84 13.05 4.27 23.03 6.3 23.09 6.31l0.5-2.44-2.5 0.01 2.5-0.01" fill="#040505"/></g>
  <g id="change4_1"><path d="m224.31 231.52c0-7.31-5.92-13.24-13.23-13.24s-13.24 5.93-13.24 13.24c0 4.41 2.16 8.3 5.48 10.71l-3.77 35.27h23.05l-3.76-35.27c3.31-2.41 5.47-6.3 5.47-10.71" fill="#162a45"/></g>
  <g id="change2_2"><path d="m224.31 231.52h2.5c0-8.7-7.04-15.74-15.73-15.74s-15.74 7.04-15.74 15.74c0 5.24 2.58 9.88 6.51 12.73l1.47-2.02-2.49-0.27-3.76 35.27c-0.08 0.71 0.15 1.42 0.63 1.94 0.47 0.53 1.15 0.83 1.85 0.83h23.05c0.71 0 1.39-0.3 1.86-0.83 0.47-0.52 0.7-1.23 0.63-1.94l-3.77-35.27-2.48 0.27 1.47 2.02c3.93-2.85 6.51-7.49 6.5-12.73h-5c0 3.57-1.74 6.72-4.44 8.68-0.72 0.53-1.11 1.4-1.01 2.29l3.46 32.51h-17.48l3.46-32.51c0.1-0.89-0.29-1.76-1.01-2.29-2.7-1.96-4.45-5.11-4.45-8.68 0-2.98 1.2-5.64 3.14-7.59 1.96-1.95 4.63-3.15 7.6-3.15s5.64 1.2 7.59 3.15 3.14 4.61 3.14 7.59h2.5" fill="#040505"/></g>
 </g>
</svg>